<svg width="709" height="962" viewBox="0 0 709 962" fill="none" xmlns="http://www.w3.org/2000/svg">
<g clip-path="url(#clip0_1_38)">
<rect width="709" height="962" fill="white"/>
<path d="M0 30C0 13.4315 13.6236 0 30.4292 0H678.571C695.376 0 709 13.4315 709 30V932C709 948.569 695.376 962 678.571 962H30.4292C13.6236 962 0 948.569 0 932V30Z" fill="#70BBD2"/>
<ellipse cx="110.5" cy="778.5" rx="278.5" ry="270.5" fill="#62B7CC" fill-opacity="0.89"/>
<ellipse cx="646" cy="702" rx="154" ry="143" fill="#62B7CC" fill-opacity="0.89"/>
<path d="M198.864 197.636V198.545H184.46V197.636H198.864ZM184.773 187.182V209H183.864V187.182H184.773ZM199.347 187.182V209H198.438V187.182H199.347ZM235.138 209.455C233.945 209.455 232.842 209.208 231.829 208.716C230.825 208.223 230.015 207.504 229.4 206.557C228.794 205.61 228.491 204.455 228.491 203.091C228.491 202.352 228.609 201.661 228.846 201.017C229.083 200.364 229.499 199.772 230.096 199.241C230.692 198.711 231.526 198.257 232.596 197.878C233.675 197.499 235.053 197.21 236.729 197.011C237.733 196.898 238.68 196.765 239.57 196.614C240.46 196.462 241.185 196.235 241.744 195.932C242.302 195.629 242.582 195.193 242.582 194.625V193.318C242.582 191.642 242.018 190.297 240.891 189.284C239.764 188.261 238.263 187.75 236.388 187.75C234.854 187.75 233.514 188.091 232.369 188.773C231.223 189.445 230.423 190.392 229.968 191.614L229.116 191.273C229.457 190.364 229.982 189.578 230.692 188.915C231.403 188.252 232.246 187.741 233.221 187.381C234.196 187.021 235.252 186.841 236.388 186.841C237.496 186.841 238.486 187.007 239.357 187.338C240.238 187.66 240.986 188.115 241.602 188.702C242.217 189.279 242.686 189.961 243.008 190.747C243.33 191.533 243.491 192.39 243.491 193.318V209H242.582V204.568H242.468C242.013 205.553 241.422 206.415 240.692 207.153C239.973 207.883 239.139 208.451 238.192 208.858C237.255 209.256 236.237 209.455 235.138 209.455ZM235.138 208.545C236.521 208.545 237.776 208.176 238.903 207.438C240.03 206.689 240.924 205.652 241.587 204.327C242.25 202.991 242.582 201.443 242.582 199.682V196.386C242.317 196.585 241.995 196.76 241.616 196.912C241.246 197.063 240.825 197.201 240.352 197.324C239.888 197.437 239.381 197.537 238.832 197.622C238.282 197.707 237.695 197.788 237.07 197.864C235.12 198.091 233.585 198.437 232.468 198.901C231.351 199.365 230.56 199.947 230.096 200.648C229.632 201.348 229.4 202.163 229.4 203.091C229.4 204.739 229.949 206.06 231.048 207.054C232.156 208.048 233.519 208.545 235.138 208.545ZM272.347 203.432H273.256C273.332 204.947 273.943 206.178 275.089 207.125C276.235 208.072 277.764 208.545 279.677 208.545C281.684 208.545 283.266 208.039 284.421 207.026C285.576 206.012 286.154 204.71 286.154 203.119C286.154 202.125 285.941 201.259 285.515 200.52C285.098 199.781 284.554 199.204 283.881 198.787C283.219 198.361 282.518 198.129 281.779 198.091H277.859V197.182H281.665C282.887 196.955 283.862 196.5 284.592 195.818C285.33 195.136 285.7 194.17 285.7 192.92C285.7 191.367 285.16 190.127 284.08 189.199C283.001 188.271 281.609 187.807 279.904 187.807C278.162 187.807 276.722 188.285 275.586 189.241C274.459 190.188 273.853 191.415 273.768 192.92H272.859C272.915 191.718 273.256 190.667 273.881 189.767C274.516 188.858 275.354 188.152 276.396 187.651C277.437 187.149 278.607 186.898 279.904 186.898C281.258 186.898 282.437 187.158 283.441 187.679C284.445 188.2 285.221 188.915 285.771 189.824C286.329 190.733 286.609 191.765 286.609 192.92C286.609 194.066 286.31 195.042 285.714 195.847C285.117 196.642 284.326 197.191 283.342 197.494V197.693C284.023 197.835 284.644 198.162 285.202 198.673C285.771 199.175 286.22 199.81 286.552 200.577C286.893 201.344 287.063 202.191 287.063 203.119C287.063 204.331 286.76 205.416 286.154 206.372C285.558 207.329 284.705 208.081 283.597 208.631C282.499 209.18 281.192 209.455 279.677 209.455C278.247 209.455 276.987 209.204 275.898 208.702C274.819 208.2 273.967 207.499 273.342 206.599C272.726 205.69 272.395 204.634 272.347 203.432ZM315.7 209V187.182H323.654C325.927 187.182 327.688 187.632 328.938 188.531C330.198 189.421 330.823 190.676 330.813 192.295C330.804 193.536 330.463 194.597 329.79 195.477C329.118 196.358 328.133 197.021 326.836 197.466C327.754 197.674 328.536 198.034 329.18 198.545C329.833 199.057 330.335 199.687 330.685 200.435C331.036 201.183 331.211 202.03 331.211 202.977C331.211 204.152 330.932 205.193 330.373 206.102C329.814 207.002 329.042 207.712 328.058 208.233C327.082 208.744 325.955 209 324.677 209H315.7ZM316.609 208.091H324.677C326.362 208.091 327.721 207.617 328.754 206.67C329.786 205.714 330.302 204.464 330.302 202.92C330.302 201.509 329.852 200.349 328.952 199.44C328.053 198.522 326.912 198.062 325.529 198.062H316.609V208.091ZM316.609 197.153H324.109C325.264 197.153 326.277 196.95 327.148 196.543C328.029 196.135 328.711 195.567 329.194 194.838C329.677 194.099 329.914 193.252 329.904 192.295C329.895 190.941 329.35 189.904 328.271 189.185C327.201 188.455 325.662 188.091 323.654 188.091H316.609V197.153ZM365.646 209.455C364.453 209.455 363.35 209.208 362.337 208.716C361.333 208.223 360.523 207.504 359.908 206.557C359.302 205.61 358.999 204.455 358.999 203.091C358.999 202.352 359.117 201.661 359.354 201.017C359.59 200.364 360.007 199.772 360.604 199.241C361.2 198.711 362.034 198.257 363.104 197.878C364.183 197.499 365.561 197.21 367.237 197.011C368.241 196.898 369.188 196.765 370.078 196.614C370.968 196.462 371.693 196.235 372.251 195.932C372.81 195.629 373.089 195.193 373.089 194.625V193.318C373.089 191.642 372.526 190.297 371.399 189.284C370.272 188.261 368.771 187.75 366.896 187.75C365.362 187.75 364.022 188.091 362.876 188.773C361.731 189.445 360.93 190.392 360.476 191.614L359.624 191.273C359.964 190.364 360.49 189.578 361.2 188.915C361.911 188.252 362.753 187.741 363.729 187.381C364.704 187.021 365.76 186.841 366.896 186.841C368.004 186.841 368.994 187.007 369.865 187.338C370.746 187.66 371.494 188.115 372.109 188.702C372.725 189.279 373.194 189.961 373.516 190.747C373.838 191.533 373.999 192.39 373.999 193.318V209H373.089V204.568H372.976C372.521 205.553 371.929 206.415 371.2 207.153C370.481 207.883 369.647 208.451 368.7 208.858C367.763 209.256 366.745 209.455 365.646 209.455ZM365.646 208.545C367.029 208.545 368.284 208.176 369.411 207.438C370.537 206.689 371.432 205.652 372.095 204.327C372.758 202.991 373.089 201.443 373.089 199.682V196.386C372.824 196.585 372.502 196.76 372.124 196.912C371.754 197.063 371.333 197.201 370.859 197.324C370.395 197.437 369.889 197.537 369.339 197.622C368.79 197.707 368.203 197.788 367.578 197.864C365.627 198.091 364.093 198.437 362.976 198.901C361.858 199.365 361.068 199.947 360.604 200.648C360.14 201.348 359.908 202.163 359.908 203.091C359.908 204.739 360.457 206.06 361.555 207.054C362.663 208.048 364.027 208.545 365.646 208.545ZM419.332 197.636V198.545H404.929V197.636H419.332ZM405.241 187.182V209H404.332V187.182H405.241ZM419.815 187.182V209H418.906V187.182H419.815ZM451.062 208.091L464.585 187.182H465.948V209H465.039V188.091L451.516 209H450.153V187.182H451.062V208.091ZM504.35 209.455C502.447 209.455 500.78 208.957 499.35 207.963C497.93 206.969 496.826 205.619 496.04 203.915C495.254 202.21 494.862 200.288 494.862 198.148C494.862 196.008 495.254 194.085 496.04 192.381C496.836 190.676 497.915 189.327 499.279 188.332C500.643 187.338 502.182 186.841 503.896 186.841C505.165 186.841 506.339 187.111 507.418 187.651C508.507 188.19 509.454 188.938 510.259 189.895C511.064 190.851 511.689 191.955 512.134 193.205C512.589 194.445 512.816 195.771 512.816 197.182V198.091H495.316V197.182H511.907C511.907 195.43 511.547 193.844 510.827 192.423C510.108 190.993 509.142 189.857 507.93 189.014C506.718 188.171 505.373 187.75 503.896 187.75C502.399 187.75 501.045 188.195 499.833 189.085C498.621 189.975 497.65 191.187 496.921 192.722C496.192 194.256 495.808 195.989 495.771 197.92V198.034C495.771 199.937 496.102 201.689 496.765 203.29C497.437 204.881 498.413 206.154 499.691 207.111C500.969 208.067 502.522 208.545 504.35 208.545C505.695 208.545 506.822 208.309 507.731 207.835C508.649 207.362 509.383 206.817 509.933 206.202C510.491 205.586 510.903 205.061 511.168 204.625L511.907 205.136C511.585 205.686 511.102 206.296 510.458 206.969C509.814 207.641 508.99 208.223 507.987 208.716C506.983 209.208 505.771 209.455 504.35 209.455Z" fill="white"/>
<path d="M175.481 353V325H178.201V337.96H195.001V325H197.721V353H195.001V338.92H178.201V353H175.481ZM214.138 353V341.16L204.218 325H207.258L216.178 339.64H216.418L223.538 325H226.578L217.018 340.6V353H214.138ZM232.825 353V325H241.625C244.718 325 247.412 325.587 249.705 326.76C251.998 327.933 253.785 329.573 255.065 331.68C256.345 333.76 256.985 336.2 256.985 339C256.985 341.8 256.345 344.253 255.065 346.36C253.785 348.44 251.998 350.067 249.705 351.24C247.412 352.413 244.718 353 241.625 353H232.825ZM241.625 325.96H235.545V352.04H241.625C245.492 352.04 248.505 350.893 250.665 348.6C252.852 346.307 253.945 343.107 253.945 339C253.945 334.893 252.852 331.693 250.665 329.4C248.505 327.107 245.492 325.96 241.625 325.96ZM265.403 325H270.763C273.59 325 275.776 325.6 277.323 326.8C278.896 327.973 279.683 329.627 279.683 331.76C279.683 333.413 279.19 334.787 278.203 335.88C277.243 336.973 275.843 337.707 274.003 338.08V338.32C275.763 338.667 277.203 339.493 278.323 340.8C279.443 342.107 280.283 343.72 280.843 345.64C281.35 347.4 281.843 348.773 282.323 349.76C282.83 350.72 283.376 351.413 283.963 351.84C284.576 352.267 285.296 352.573 286.123 352.76V353H284.483C283.31 353 282.336 352.787 281.563 352.36C280.816 351.933 280.176 351.213 279.643 350.2C279.11 349.187 278.603 347.787 278.123 346C277.35 343.253 276.323 341.307 275.043 340.16C273.763 339.013 272.203 338.44 270.363 338.44H270.123V337.72H270.363C274.656 337.72 276.803 335.747 276.803 331.8C276.803 327.907 274.79 325.96 270.763 325.96H268.123V353H265.403V325ZM288.118 353L298.878 325H301.358L312.118 353H309.198L304.238 339.88H295.158L291.038 353H288.118ZM299.158 327.08L295.438 338.92H303.878L299.398 327.08H299.158ZM322.623 353V325.8C322.223 325.8 321.397 325.88 320.143 326.04L312.303 327.04V325H335.663V327.04L327.823 326.04C326.57 325.88 325.743 325.8 325.343 325.8V353H322.623ZM342.161 353V325H344.881V353H342.161ZM354.686 353L355.686 324.44H356.166L376.286 348.76H376.526L375.646 325H378.366L377.366 353.56H376.886L356.766 329.24H356.526L357.406 353H354.686ZM402.137 339.72V338.76H412.257V349.64C411.03 350.867 409.523 351.827 407.737 352.52C405.977 353.213 404.003 353.56 401.817 353.56C399.577 353.56 397.51 353.2 395.617 352.48C393.723 351.733 392.07 350.707 390.657 349.4C389.243 348.067 388.137 346.52 387.337 344.76C386.563 343 386.177 341.08 386.177 339C386.177 336.92 386.563 335 387.337 333.24C388.137 331.48 389.243 329.947 390.657 328.64C392.07 327.307 393.723 326.28 395.617 325.56C397.51 324.813 399.577 324.44 401.817 324.44C402.777 324.44 403.817 324.507 404.937 324.64C406.083 324.773 407.177 324.96 408.217 325.2C409.257 325.413 410.137 325.68 410.857 326L410.657 328.24H410.417C409.35 327.307 408.07 326.6 406.577 326.12C405.083 325.64 403.497 325.4 401.817 325.4C399.31 325.4 397.11 325.973 395.217 327.12C393.323 328.24 391.843 329.827 390.777 331.88C389.737 333.907 389.217 336.28 389.217 339C389.217 341.72 389.737 344.107 390.777 346.16C391.843 348.187 393.323 349.773 395.217 350.92C397.11 352.04 399.31 352.6 401.817 352.6C403.363 352.6 404.79 352.387 406.097 351.96C407.43 351.533 408.577 350.92 409.537 350.12V339.72H402.137ZM458.599 325V353H455.879V327.32H455.639L445.959 345.88H444.719L433.719 329.52H433.479L434.359 353H431.639L432.639 324.44H433.439L446.039 343.16H446.279L455.719 325H458.599ZM464.837 353L475.597 325H478.077L488.837 353H485.917L480.957 339.88H471.877L467.757 353H464.837ZM475.877 327.08L472.157 338.92H480.597L476.117 327.08H475.877ZM492.885 352.12L493.125 349.72H493.365C494.405 350.627 495.578 351.333 496.885 351.84C498.192 352.347 499.485 352.6 500.765 352.6C502.578 352.6 504.045 352.107 505.165 351.12C506.285 350.107 506.845 348.76 506.845 347.08C506.845 346.147 506.632 345.28 506.205 344.48C505.805 343.68 505.125 342.867 504.165 342.04C503.232 341.213 501.938 340.32 500.285 339.36C499.138 338.693 498.045 338 497.005 337.28C495.965 336.533 495.112 335.68 494.445 334.72C493.778 333.733 493.445 332.56 493.445 331.2C493.445 329.173 494.178 327.547 495.645 326.32C497.112 325.067 499.045 324.44 501.445 324.44C502.512 324.44 503.658 324.56 504.885 324.8C506.112 325.013 507.058 325.293 507.725 325.64L507.525 327.88H507.285C505.765 326.227 503.818 325.4 501.445 325.4C499.738 325.4 498.365 325.84 497.325 326.72C496.285 327.573 495.765 328.733 495.765 330.2C495.765 331.293 496.045 332.24 496.605 333.04C497.192 333.813 497.938 334.52 498.845 335.16C499.752 335.773 500.725 336.373 501.765 336.96C502.965 337.653 504.125 338.387 505.245 339.16C506.392 339.933 507.325 340.867 508.045 341.96C508.792 343.027 509.165 344.373 509.165 346C509.165 347.493 508.818 348.813 508.125 349.96C507.432 351.08 506.445 351.96 505.165 352.6C503.912 353.24 502.445 353.56 500.765 353.56C499.698 353.56 498.445 353.427 497.005 353.16C495.565 352.893 494.192 352.547 492.885 352.12ZM534.324 353L521.204 338.64L533.364 325H536.804L523.644 337.52L537.924 353H534.324ZM517.044 353V325H519.764V353H517.044Z" fill="white"/>
<ellipse cx="547.5" cy="841" rx="107.5" ry="106" fill="#5CB2CC"/>
<path d="M112.36 736.936L112.216 738.4C111.768 738.592 111.224 738.76 110.584 738.904C109.944 739.048 109.296 739.152 108.64 739.216C107.984 739.296 107.4 739.336 106.888 739.336C105.592 739.336 104.392 739.12 103.288 738.688C102.184 738.24 101.216 737.624 100.384 736.84C99.5677 736.056 98.9277 735.136 98.4637 734.08C97.9997 733.008 97.7677 731.848 97.7677 730.6C97.7677 729.352 97.9997 728.2 98.4637 727.144C98.9277 726.072 99.5677 725.144 100.384 724.36C101.216 723.576 102.184 722.968 103.288 722.536C104.392 722.088 105.592 721.864 106.888 721.864C107.416 721.864 108.008 721.904 108.664 721.984C109.32 722.064 109.96 722.176 110.584 722.32C111.208 722.448 111.736 722.6 112.168 722.776L112.048 724.12H111.904C111.312 723.576 110.568 723.16 109.672 722.872C108.776 722.584 107.848 722.44 106.888 722.44C105.448 722.44 104.176 722.784 103.072 723.472C101.984 724.144 101.128 725.096 100.504 726.328C99.8957 727.544 99.5917 728.968 99.5917 730.6C99.5917 732.248 99.8957 733.68 100.504 734.896C101.128 736.112 101.984 737.064 103.072 737.752C104.16 738.424 105.432 738.76 106.888 738.76C107.976 738.76 108.984 738.584 109.912 738.232C110.856 737.88 111.624 737.448 112.216 736.936H112.36ZM115.486 730.6C115.486 729.368 115.702 728.224 116.134 727.168C116.582 726.096 117.198 725.168 117.982 724.384C118.782 723.584 119.71 722.968 120.766 722.536C121.838 722.088 122.99 721.864 124.222 721.864C125.454 721.864 126.598 722.088 127.654 722.536C128.726 722.968 129.654 723.584 130.438 724.384C131.238 725.168 131.854 726.096 132.286 727.168C132.734 728.224 132.958 729.368 132.958 730.6C132.958 731.832 132.734 732.984 132.286 734.056C131.854 735.112 131.238 736.04 130.438 736.84C129.654 737.624 128.726 738.24 127.654 738.688C126.598 739.12 125.454 739.336 124.222 739.336C122.99 739.336 121.838 739.12 120.766 738.688C119.71 738.24 118.782 737.624 117.982 736.84C117.198 736.04 116.582 735.112 116.134 734.056C115.702 732.984 115.486 731.832 115.486 730.6ZM117.31 730.6C117.31 732.232 117.598 733.664 118.174 734.896C118.75 736.112 119.558 737.064 120.598 737.752C121.638 738.424 122.846 738.76 124.222 738.76C125.598 738.76 126.806 738.424 127.846 737.752C128.886 737.064 129.694 736.104 130.27 734.872C130.846 733.64 131.134 732.216 131.134 730.6C131.134 728.984 130.846 727.568 130.27 726.352C129.694 725.12 128.886 724.16 127.846 723.472C126.806 722.784 125.598 722.44 124.222 722.44C122.846 722.44 121.638 722.784 120.598 723.472C119.574 724.144 118.766 725.096 118.174 726.328C117.598 727.544 117.31 728.968 117.31 730.6ZM137.991 722.2H139.623V738.52C139.927 738.52 140.407 738.472 141.063 738.376L145.047 737.776V739H137.991V722.2ZM149.054 722.2H150.686V738.52C150.99 738.52 151.47 738.472 152.126 738.376L156.11 737.776V739H149.054V722.2ZM158.089 739L164.545 722.2H166.033L172.489 739H170.737L167.761 731.128H162.313L159.841 739H158.089ZM164.713 723.448L162.481 730.552H167.545L164.857 723.448H164.713ZM184.523 731.032V730.456H190.595V736.984C189.859 737.72 188.955 738.296 187.883 738.712C186.827 739.128 185.643 739.336 184.331 739.336C182.987 739.336 181.747 739.12 180.611 738.688C179.475 738.24 178.483 737.624 177.635 736.84C176.787 736.04 176.123 735.112 175.643 734.056C175.179 733 174.947 731.848 174.947 730.6C174.947 729.352 175.179 728.2 175.643 727.144C176.123 726.088 176.787 725.168 177.635 724.384C178.483 723.584 179.475 722.968 180.611 722.536C181.747 722.088 182.987 721.864 184.331 721.864C184.907 721.864 185.531 721.904 186.203 721.984C186.891 722.064 187.547 722.176 188.171 722.32C188.795 722.448 189.323 722.608 189.755 722.8L189.635 724.144H189.491C188.851 723.584 188.083 723.16 187.187 722.872C186.291 722.584 185.339 722.44 184.331 722.44C182.827 722.44 181.507 722.784 180.371 723.472C179.235 724.144 178.347 725.096 177.707 726.328C177.083 727.544 176.771 728.968 176.771 730.6C176.771 732.232 177.083 733.664 177.707 734.896C178.347 736.112 179.235 737.064 180.371 737.752C181.507 738.424 182.827 738.76 184.331 738.76C185.259 738.76 186.115 738.632 186.899 738.376C187.699 738.12 188.387 737.752 188.963 737.272V731.032H184.523ZM196.116 739V722.2H203.436V723.376L199.236 722.824C198.5 722.728 198.004 722.68 197.748 722.68V730C197.956 730 198.452 729.976 199.236 729.928L203.172 729.688V730.792L199.236 730.552C198.452 730.504 197.956 730.48 197.748 730.48V738.52C198.036 738.52 198.54 738.472 199.26 738.376L203.508 737.824V739H196.116ZM208.178 739L208.778 721.864H209.066L221.138 736.456H221.282L220.754 722.2H222.386L221.786 739.336H221.498L209.426 724.744H209.282L209.81 739H208.178ZM49.5263 795V778.2H51.1583V785.976H61.2383V778.2H62.8703V795H61.2383V786.552H51.1583V795H49.5263ZM72.72 795V787.896L66.768 778.2H68.592L73.944 786.984H74.088L78.36 778.2H80.184L74.448 787.56V795H72.72ZM80.0068 795L86.4628 778.2H87.9508L94.4068 795H92.6548L89.6788 787.128H84.2308L81.7588 795H80.0068ZM86.6308 779.448L84.3988 786.552H89.4628L86.7748 779.448H86.6308ZM98.2997 778.2H99.9317V794.52C100.236 794.52 100.716 794.472 101.372 794.376L105.356 793.776V795H98.2997V778.2ZM108.653 778.2H110.285V788.328C110.285 790.264 110.757 791.776 111.701 792.864C112.661 793.936 114.005 794.472 115.733 794.472C116.821 794.472 117.765 794.264 118.565 793.848C119.381 793.416 120.005 792.824 120.437 792.072C120.885 791.32 121.093 790.456 121.061 789.48L120.653 778.2H122.285L121.877 789.48C121.813 791.4 121.237 792.856 120.149 793.848C119.077 794.84 117.541 795.336 115.541 795.336C113.381 795.336 111.693 794.712 110.477 793.464C109.261 792.2 108.653 790.472 108.653 788.28V778.2ZM128.042 778.2H131.258C132.954 778.2 134.266 778.56 135.194 779.28C136.138 779.984 136.61 780.976 136.61 782.256C136.61 783.248 136.314 784.072 135.722 784.728C135.146 785.384 134.306 785.824 133.202 786.048V786.192C134.258 786.4 135.122 786.896 135.794 787.68C136.466 788.464 136.97 789.432 137.306 790.584C137.61 791.64 137.906 792.464 138.194 793.056C138.498 793.632 138.826 794.048 139.178 794.304C139.546 794.56 139.978 794.744 140.474 794.856V795H139.49C138.786 795 138.202 794.872 137.738 794.616C137.29 794.36 136.906 793.928 136.586 793.32C136.266 792.712 135.962 791.872 135.674 790.8C135.21 789.152 134.594 787.984 133.826 787.296C133.058 786.608 132.122 786.264 131.018 786.264H130.874V785.832H131.018C133.594 785.832 134.882 784.648 134.882 782.28C134.882 779.944 133.674 778.776 131.258 778.776H129.674V795H128.042V778.2ZM141.772 786.6C141.772 785.368 141.988 784.224 142.42 783.168C142.868 782.096 143.484 781.168 144.268 780.384C145.068 779.584 145.996 778.968 147.052 778.536C148.124 778.088 149.276 777.864 150.508 777.864C151.74 777.864 152.884 778.088 153.94 778.536C155.012 778.968 155.94 779.584 156.724 780.384C157.524 781.168 158.14 782.096 158.572 783.168C159.02 784.224 159.244 785.368 159.244 786.6C159.244 787.832 159.02 788.984 158.572 790.056C158.14 791.112 157.524 792.04 156.724 792.84C155.94 793.624 155.012 794.24 153.94 794.688C152.884 795.12 151.74 795.336 150.508 795.336C149.276 795.336 148.124 795.12 147.052 794.688C145.996 794.24 145.068 793.624 144.268 792.84C143.484 792.04 142.868 791.112 142.42 790.056C141.988 788.984 141.772 787.832 141.772 786.6ZM143.596 786.6C143.596 788.232 143.884 789.664 144.46 790.896C145.036 792.112 145.844 793.064 146.884 793.752C147.924 794.424 149.132 794.76 150.508 794.76C151.884 794.76 153.092 794.424 154.132 793.752C155.172 793.064 155.98 792.104 156.556 790.872C157.132 789.64 157.42 788.216 157.42 786.6C157.42 784.984 157.132 783.568 156.556 782.352C155.98 781.12 155.172 780.16 154.132 779.472C153.092 778.784 151.884 778.44 150.508 778.44C149.132 778.44 147.924 778.784 146.884 779.472C145.86 780.144 145.052 781.096 144.46 782.328C143.884 783.544 143.596 784.968 143.596 786.6ZM163.916 795L164.516 777.864H164.804L176.876 792.456H177.02L176.492 778.2H178.124L177.524 795.336H177.236L165.164 780.744H165.02L165.548 795H163.916ZM184.011 795V778.2H185.643V795H184.011ZM205.278 792.936L205.134 794.4C204.686 794.592 204.142 794.76 203.502 794.904C202.862 795.048 202.214 795.152 201.558 795.216C200.902 795.296 200.318 795.336 199.806 795.336C198.51 795.336 197.31 795.12 196.206 794.688C195.102 794.24 194.134 793.624 193.302 792.84C192.486 792.056 191.846 791.136 191.382 790.08C190.918 789.008 190.686 787.848 190.686 786.6C190.686 785.352 190.918 784.2 191.382 783.144C191.846 782.072 192.486 781.144 193.302 780.36C194.134 779.576 195.102 778.968 196.206 778.536C197.31 778.088 198.51 777.864 199.806 777.864C200.334 777.864 200.926 777.904 201.582 777.984C202.238 778.064 202.878 778.176 203.502 778.32C204.126 778.448 204.654 778.6 205.086 778.776L204.966 780.12H204.822C204.23 779.576 203.486 779.16 202.59 778.872C201.694 778.584 200.766 778.44 199.806 778.44C198.366 778.44 197.094 778.784 195.99 779.472C194.902 780.144 194.046 781.096 193.422 782.328C192.814 783.544 192.51 784.968 192.51 786.6C192.51 788.248 192.814 789.68 193.422 790.896C194.046 792.112 194.902 793.064 195.99 793.752C197.078 794.424 198.35 794.76 199.806 794.76C200.894 794.76 201.902 794.584 202.83 794.232C203.774 793.88 204.542 793.448 205.134 792.936H205.278ZM214.046 795L220.502 778.2H221.99L228.446 795H226.694L223.718 787.128H218.27L215.798 795H214.046ZM220.67 779.448L218.438 786.552H223.502L220.814 779.448H220.67ZM245.496 792.936L245.352 794.4C244.904 794.592 244.36 794.76 243.72 794.904C243.08 795.048 242.432 795.152 241.776 795.216C241.12 795.296 240.536 795.336 240.024 795.336C238.728 795.336 237.528 795.12 236.424 794.688C235.32 794.24 234.352 793.624 233.52 792.84C232.704 792.056 232.064 791.136 231.6 790.08C231.136 789.008 230.904 787.848 230.904 786.6C230.904 785.352 231.136 784.2 231.6 783.144C232.064 782.072 232.704 781.144 233.52 780.36C234.352 779.576 235.32 778.968 236.424 778.536C237.528 778.088 238.728 777.864 240.024 777.864C240.552 777.864 241.144 777.904 241.8 777.984C242.456 778.064 243.096 778.176 243.72 778.32C244.344 778.448 244.872 778.6 245.304 778.776L245.184 780.12H245.04C244.448 779.576 243.704 779.16 242.808 778.872C241.912 778.584 240.984 778.44 240.024 778.44C238.584 778.44 237.312 778.784 236.208 779.472C235.12 780.144 234.264 781.096 233.64 782.328C233.032 783.544 232.728 784.968 232.728 786.6C232.728 788.248 233.032 789.68 233.64 790.896C234.264 792.112 235.12 793.064 236.208 793.752C237.296 794.424 238.568 794.76 240.024 794.76C241.112 794.76 242.12 794.584 243.048 794.232C243.992 793.88 244.76 793.448 245.352 792.936H245.496ZM250.292 795V778.2H251.924V795H250.292ZM258.167 795V778.2H263.447C265.303 778.2 266.919 778.552 268.295 779.256C269.671 779.96 270.743 780.944 271.511 782.208C272.279 783.456 272.663 784.92 272.663 786.6C272.663 788.28 272.279 789.752 271.511 791.016C270.743 792.264 269.671 793.24 268.295 793.944C266.919 794.648 265.303 795 263.447 795H258.167ZM263.447 778.776H259.799V794.424H263.447C265.767 794.424 267.575 793.736 268.871 792.36C270.183 790.984 270.839 789.064 270.839 786.6C270.839 784.136 270.183 782.216 268.871 780.84C267.575 779.464 265.767 778.776 263.447 778.776Z" fill="white"/>
<path d="M112.36 736.936L112.216 738.4C111.768 738.592 111.224 738.76 110.584 738.904C109.944 739.048 109.296 739.152 108.64 739.216C107.984 739.296 107.4 739.336 106.888 739.336C105.592 739.336 104.392 739.12 103.288 738.688C102.184 738.24 101.216 737.624 100.384 736.84C99.5677 736.056 98.9277 735.136 98.4637 734.08C97.9997 733.008 97.7677 731.848 97.7677 730.6C97.7677 729.352 97.9997 728.2 98.4637 727.144C98.9277 726.072 99.5677 725.144 100.384 724.36C101.216 723.576 102.184 722.968 103.288 722.536C104.392 722.088 105.592 721.864 106.888 721.864C107.416 721.864 108.008 721.904 108.664 721.984C109.32 722.064 109.96 722.176 110.584 722.32C111.208 722.448 111.736 722.6 112.168 722.776L112.048 724.12H111.904C111.312 723.576 110.568 723.16 109.672 722.872C108.776 722.584 107.848 722.44 106.888 722.44C105.448 722.44 104.176 722.784 103.072 723.472C101.984 724.144 101.128 725.096 100.504 726.328C99.8957 727.544 99.5917 728.968 99.5917 730.6C99.5917 732.248 99.8957 733.68 100.504 734.896C101.128 736.112 101.984 737.064 103.072 737.752C104.16 738.424 105.432 738.76 106.888 738.76C107.976 738.76 108.984 738.584 109.912 738.232C110.856 737.88 111.624 737.448 112.216 736.936H112.36ZM115.486 730.6C115.486 729.368 115.702 728.224 116.134 727.168C116.582 726.096 117.198 725.168 117.982 724.384C118.782 723.584 119.71 722.968 120.766 722.536C121.838 722.088 122.99 721.864 124.222 721.864C125.454 721.864 126.598 722.088 127.654 722.536C128.726 722.968 129.654 723.584 130.438 724.384C131.238 725.168 131.854 726.096 132.286 727.168C132.734 728.224 132.958 729.368 132.958 730.6C132.958 731.832 132.734 732.984 132.286 734.056C131.854 735.112 131.238 736.04 130.438 736.84C129.654 737.624 128.726 738.24 127.654 738.688C126.598 739.12 125.454 739.336 124.222 739.336C122.99 739.336 121.838 739.12 120.766 738.688C119.71 738.24 118.782 737.624 117.982 736.84C117.198 736.04 116.582 735.112 116.134 734.056C115.702 732.984 115.486 731.832 115.486 730.6ZM117.31 730.6C117.31 732.232 117.598 733.664 118.174 734.896C118.75 736.112 119.558 737.064 120.598 737.752C121.638 738.424 122.846 738.76 124.222 738.76C125.598 738.76 126.806 738.424 127.846 737.752C128.886 737.064 129.694 736.104 130.27 734.872C130.846 733.64 131.134 732.216 131.134 730.6C131.134 728.984 130.846 727.568 130.27 726.352C129.694 725.12 128.886 724.16 127.846 723.472C126.806 722.784 125.598 722.44 124.222 722.44C122.846 722.44 121.638 722.784 120.598 723.472C119.574 724.144 118.766 725.096 118.174 726.328C117.598 727.544 117.31 728.968 117.31 730.6ZM137.991 722.2H139.623V738.52C139.927 738.52 140.407 738.472 141.063 738.376L145.047 737.776V739H137.991V722.2ZM149.054 722.2H150.686V738.52C150.99 738.52 151.47 738.472 152.126 738.376L156.11 737.776V739H149.054V722.2ZM158.089 739L164.545 722.2H166.033L172.489 739H170.737L167.761 731.128H162.313L159.841 739H158.089ZM164.713 723.448L162.481 730.552H167.545L164.857 723.448H164.713ZM184.523 731.032V730.456H190.595V736.984C189.859 737.72 188.955 738.296 187.883 738.712C186.827 739.128 185.643 739.336 184.331 739.336C182.987 739.336 181.747 739.12 180.611 738.688C179.475 738.24 178.483 737.624 177.635 736.84C176.787 736.04 176.123 735.112 175.643 734.056C175.179 733 174.947 731.848 174.947 730.6C174.947 729.352 175.179 728.2 175.643 727.144C176.123 726.088 176.787 725.168 177.635 724.384C178.483 723.584 179.475 722.968 180.611 722.536C181.747 722.088 182.987 721.864 184.331 721.864C184.907 721.864 185.531 721.904 186.203 721.984C186.891 722.064 187.547 722.176 188.171 722.32C188.795 722.448 189.323 722.608 189.755 722.8L189.635 724.144H189.491C188.851 723.584 188.083 723.16 187.187 722.872C186.291 722.584 185.339 722.44 184.331 722.44C182.827 722.44 181.507 722.784 180.371 723.472C179.235 724.144 178.347 725.096 177.707 726.328C177.083 727.544 176.771 728.968 176.771 730.6C176.771 732.232 177.083 733.664 177.707 734.896C178.347 736.112 179.235 737.064 180.371 737.752C181.507 738.424 182.827 738.76 184.331 738.76C185.259 738.76 186.115 738.632 186.899 738.376C187.699 738.12 188.387 737.752 188.963 737.272V731.032H184.523ZM196.116 739V722.2H203.436V723.376L199.236 722.824C198.5 722.728 198.004 722.68 197.748 722.68V730C197.956 730 198.452 729.976 199.236 729.928L203.172 729.688V730.792L199.236 730.552C198.452 730.504 197.956 730.48 197.748 730.48V738.52C198.036 738.52 198.54 738.472 199.26 738.376L203.508 737.824V739H196.116ZM208.178 739L208.778 721.864H209.066L221.138 736.456H221.282L220.754 722.2H222.386L221.786 739.336H221.498L209.426 724.744H209.282L209.81 739H208.178ZM49.5263 795V778.2H51.1583V785.976H61.2383V778.2H62.8703V795H61.2383V786.552H51.1583V795H49.5263ZM72.72 795V787.896L66.768 778.2H68.592L73.944 786.984H74.088L78.36 778.2H80.184L74.448 787.56V795H72.72ZM80.0068 795L86.4628 778.2H87.9508L94.4068 795H92.6548L89.6788 787.128H84.2308L81.7588 795H80.0068ZM86.6308 779.448L84.3988 786.552H89.4628L86.7748 779.448H86.6308ZM98.2997 778.2H99.9317V794.52C100.236 794.52 100.716 794.472 101.372 794.376L105.356 793.776V795H98.2997V778.2ZM108.653 778.2H110.285V788.328C110.285 790.264 110.757 791.776 111.701 792.864C112.661 793.936 114.005 794.472 115.733 794.472C116.821 794.472 117.765 794.264 118.565 793.848C119.381 793.416 120.005 792.824 120.437 792.072C120.885 791.32 121.093 790.456 121.061 789.48L120.653 778.2H122.285L121.877 789.48C121.813 791.4 121.237 792.856 120.149 793.848C119.077 794.84 117.541 795.336 115.541 795.336C113.381 795.336 111.693 794.712 110.477 793.464C109.261 792.2 108.653 790.472 108.653 788.28V778.2ZM128.042 778.2H131.258C132.954 778.2 134.266 778.56 135.194 779.28C136.138 779.984 136.61 780.976 136.61 782.256C136.61 783.248 136.314 784.072 135.722 784.728C135.146 785.384 134.306 785.824 133.202 786.048V786.192C134.258 786.4 135.122 786.896 135.794 787.68C136.466 788.464 136.97 789.432 137.306 790.584C137.61 791.64 137.906 792.464 138.194 793.056C138.498 793.632 138.826 794.048 139.178 794.304C139.546 794.56 139.978 794.744 140.474 794.856V795H139.49C138.786 795 138.202 794.872 137.738 794.616C137.29 794.36 136.906 793.928 136.586 793.32C136.266 792.712 135.962 791.872 135.674 790.8C135.21 789.152 134.594 787.984 133.826 787.296C133.058 786.608 132.122 786.264 131.018 786.264H130.874V785.832H131.018C133.594 785.832 134.882 784.648 134.882 782.28C134.882 779.944 133.674 778.776 131.258 778.776H129.674V795H128.042V778.2ZM141.772 786.6C141.772 785.368 141.988 784.224 142.42 783.168C142.868 782.096 143.484 781.168 144.268 780.384C145.068 779.584 145.996 778.968 147.052 778.536C148.124 778.088 149.276 777.864 150.508 777.864C151.74 777.864 152.884 778.088 153.94 778.536C155.012 778.968 155.94 779.584 156.724 780.384C157.524 781.168 158.14 782.096 158.572 783.168C159.02 784.224 159.244 785.368 159.244 786.6C159.244 787.832 159.02 788.984 158.572 790.056C158.14 791.112 157.524 792.04 156.724 792.84C155.94 793.624 155.012 794.24 153.94 794.688C152.884 795.12 151.74 795.336 150.508 795.336C149.276 795.336 148.124 795.12 147.052 794.688C145.996 794.24 145.068 793.624 144.268 792.84C143.484 792.04 142.868 791.112 142.42 790.056C141.988 788.984 141.772 787.832 141.772 786.6ZM143.596 786.6C143.596 788.232 143.884 789.664 144.46 790.896C145.036 792.112 145.844 793.064 146.884 793.752C147.924 794.424 149.132 794.76 150.508 794.76C151.884 794.76 153.092 794.424 154.132 793.752C155.172 793.064 155.98 792.104 156.556 790.872C157.132 789.64 157.42 788.216 157.42 786.6C157.42 784.984 157.132 783.568 156.556 782.352C155.98 781.12 155.172 780.16 154.132 779.472C153.092 778.784 151.884 778.44 150.508 778.44C149.132 778.44 147.924 778.784 146.884 779.472C145.86 780.144 145.052 781.096 144.46 782.328C143.884 783.544 143.596 784.968 143.596 786.6ZM163.916 795L164.516 777.864H164.804L176.876 792.456H177.02L176.492 778.2H178.124L177.524 795.336H177.236L165.164 780.744H165.02L165.548 795H163.916ZM184.011 795V778.2H185.643V795H184.011ZM205.278 792.936L205.134 794.4C204.686 794.592 204.142 794.76 203.502 794.904C202.862 795.048 202.214 795.152 201.558 795.216C200.902 795.296 200.318 795.336 199.806 795.336C198.51 795.336 197.31 795.12 196.206 794.688C195.102 794.24 194.134 793.624 193.302 792.84C192.486 792.056 191.846 791.136 191.382 790.08C190.918 789.008 190.686 787.848 190.686 786.6C190.686 785.352 190.918 784.2 191.382 783.144C191.846 782.072 192.486 781.144 193.302 780.36C194.134 779.576 195.102 778.968 196.206 778.536C197.31 778.088 198.51 777.864 199.806 777.864C200.334 777.864 200.926 777.904 201.582 777.984C202.238 778.064 202.878 778.176 203.502 778.32C204.126 778.448 204.654 778.6 205.086 778.776L204.966 780.12H204.822C204.23 779.576 203.486 779.16 202.59 778.872C201.694 778.584 200.766 778.44 199.806 778.44C198.366 778.44 197.094 778.784 195.99 779.472C194.902 780.144 194.046 781.096 193.422 782.328C192.814 783.544 192.51 784.968 192.51 786.6C192.51 788.248 192.814 789.68 193.422 790.896C194.046 792.112 194.902 793.064 195.99 793.752C197.078 794.424 198.35 794.76 199.806 794.76C200.894 794.76 201.902 794.584 202.83 794.232C203.774 793.88 204.542 793.448 205.134 792.936H205.278ZM214.046 795L220.502 778.2H221.99L228.446 795H226.694L223.718 787.128H218.27L215.798 795H214.046ZM220.67 779.448L218.438 786.552H223.502L220.814 779.448H220.67ZM245.496 792.936L245.352 794.4C244.904 794.592 244.36 794.76 243.72 794.904C243.08 795.048 242.432 795.152 241.776 795.216C241.12 795.296 240.536 795.336 240.024 795.336C238.728 795.336 237.528 795.12 236.424 794.688C235.32 794.24 234.352 793.624 233.52 792.84C232.704 792.056 232.064 791.136 231.6 790.08C231.136 789.008 230.904 787.848 230.904 786.6C230.904 785.352 231.136 784.2 231.6 783.144C232.064 782.072 232.704 781.144 233.52 780.36C234.352 779.576 235.32 778.968 236.424 778.536C237.528 778.088 238.728 777.864 240.024 777.864C240.552 777.864 241.144 777.904 241.8 777.984C242.456 778.064 243.096 778.176 243.72 778.32C244.344 778.448 244.872 778.6 245.304 778.776L245.184 780.12H245.04C244.448 779.576 243.704 779.16 242.808 778.872C241.912 778.584 240.984 778.44 240.024 778.44C238.584 778.44 237.312 778.784 236.208 779.472C235.12 780.144 234.264 781.096 233.64 782.328C233.032 783.544 232.728 784.968 232.728 786.6C232.728 788.248 233.032 789.68 233.64 790.896C234.264 792.112 235.12 793.064 236.208 793.752C237.296 794.424 238.568 794.76 240.024 794.76C241.112 794.76 242.12 794.584 243.048 794.232C243.992 793.88 244.76 793.448 245.352 792.936H245.496ZM250.292 795V778.2H251.924V795H250.292ZM258.167 795V778.2H263.447C265.303 778.2 266.919 778.552 268.295 779.256C269.671 779.96 270.743 780.944 271.511 782.208C272.279 783.456 272.663 784.92 272.663 786.6C272.663 788.28 272.279 789.752 271.511 791.016C270.743 792.264 269.671 793.24 268.295 793.944C266.919 794.648 265.303 795 263.447 795H258.167ZM263.447 778.776H259.799V794.424H263.447C265.767 794.424 267.575 793.736 268.871 792.36C270.183 790.984 270.839 789.064 270.839 786.6C270.839 784.136 270.183 782.216 268.871 780.84C267.575 779.464 265.767 778.776 263.447 778.776Z" fill="white"/>
<path d="M563.191 715V692.6H572.599V694.168L567.287 693.432C566.327 693.304 565.687 693.24 565.367 693.24V703.256C565.709 703.256 566.37 703.224 567.351 703.16L572.247 702.84V704.312L567.351 703.992C566.37 703.928 565.709 703.896 565.367 703.896V715H563.191ZM576.935 703.8C576.935 702.157 577.223 700.632 577.799 699.224C578.396 697.795 579.218 696.557 580.263 695.512C581.33 694.445 582.567 693.624 583.975 693.048C585.404 692.451 586.94 692.152 588.583 692.152C590.226 692.152 591.751 692.451 593.159 693.048C594.588 693.624 595.826 694.445 596.871 695.512C597.938 696.557 598.759 697.795 599.335 699.224C599.932 700.632 600.231 702.157 600.231 703.8C600.231 705.443 599.932 706.979 599.335 708.408C598.759 709.816 597.938 711.053 596.871 712.12C595.826 713.165 594.588 713.987 593.159 714.584C591.751 715.16 590.226 715.448 588.583 715.448C586.94 715.448 585.404 715.16 583.975 714.584C582.567 713.987 581.33 713.165 580.263 712.12C579.218 711.053 578.396 709.816 577.799 708.408C577.223 706.979 576.935 705.443 576.935 703.8ZM579.367 703.8C579.367 705.976 579.751 707.885 580.519 709.528C581.287 711.149 582.364 712.419 583.751 713.336C585.138 714.232 586.748 714.68 588.583 714.68C590.418 714.68 592.028 714.232 593.415 713.336C594.802 712.419 595.879 711.139 596.647 709.496C597.415 707.853 597.799 705.955 597.799 703.8C597.799 701.645 597.415 699.757 596.647 698.136C595.879 696.493 594.802 695.213 593.415 694.296C592.028 693.379 590.418 692.92 588.583 692.92C586.748 692.92 585.138 693.379 583.751 694.296C582.386 695.192 581.308 696.461 580.519 698.104C579.751 699.725 579.367 701.624 579.367 703.8ZM606.941 692.6H611.229C613.491 692.6 615.24 693.08 616.477 694.04C617.736 694.979 618.365 696.301 618.365 698.008C618.365 699.331 617.971 700.429 617.181 701.304C616.413 702.179 615.293 702.765 613.821 703.064V703.256C615.229 703.533 616.381 704.195 617.277 705.24C618.173 706.285 618.845 707.576 619.293 709.112C619.699 710.52 620.093 711.619 620.477 712.408C620.883 713.176 621.32 713.731 621.789 714.072C622.28 714.413 622.856 714.659 623.517 714.808V715H622.205C621.267 715 620.488 714.829 619.869 714.488C619.272 714.147 618.76 713.571 618.333 712.76C617.907 711.949 617.501 710.829 617.117 709.4C616.499 707.203 615.677 705.645 614.653 704.728C613.629 703.811 612.381 703.352 610.909 703.352H610.717V702.776H610.909C614.344 702.776 616.061 701.197 616.061 698.04C616.061 694.925 614.451 693.368 611.229 693.368H609.117V715H606.941V692.6ZM636.098 715V692.6H638.274V702.968H651.714V692.6H653.89V715H651.714V703.736H638.274V715H636.098ZM662.223 715V692.6H664.399V715H662.223ZM693.811 692.6V715H691.635V694.456H691.443L683.699 709.304H682.707L673.907 696.216H673.715L674.419 715H672.243L673.043 692.152H673.683L683.763 707.128H683.955L691.507 692.6H693.811Z" fill="white"/>
<path d="M500.573 841V824.2H507.629V825.376L503.645 824.824C502.925 824.728 502.445 824.68 502.205 824.68V832.192C502.461 832.192 502.957 832.168 503.693 832.12L507.365 831.88V832.984L503.693 832.744C502.957 832.696 502.461 832.672 502.205 832.672V841H500.573ZM510.881 832.6C510.881 831.368 511.097 830.224 511.529 829.168C511.977 828.096 512.593 827.168 513.377 826.384C514.177 825.584 515.105 824.968 516.161 824.536C517.233 824.088 518.385 823.864 519.617 823.864C520.849 823.864 521.993 824.088 523.049 824.536C524.121 824.968 525.049 825.584 525.833 826.384C526.633 827.168 527.249 828.096 527.681 829.168C528.129 830.224 528.353 831.368 528.353 832.6C528.353 833.832 528.129 834.984 527.681 836.056C527.249 837.112 526.633 838.04 525.833 838.84C525.049 839.624 524.121 840.24 523.049 840.688C521.993 841.12 520.849 841.336 519.617 841.336C518.385 841.336 517.233 841.12 516.161 840.688C515.105 840.24 514.177 839.624 513.377 838.84C512.593 838.04 511.977 837.112 511.529 836.056C511.097 834.984 510.881 833.832 510.881 832.6ZM512.705 832.6C512.705 834.232 512.993 835.664 513.569 836.896C514.145 838.112 514.953 839.064 515.993 839.752C517.033 840.424 518.241 840.76 519.617 840.76C520.993 840.76 522.201 840.424 523.241 839.752C524.281 839.064 525.089 838.104 525.665 836.872C526.241 835.64 526.529 834.216 526.529 832.6C526.529 830.984 526.241 829.568 525.665 828.352C525.089 827.12 524.281 826.16 523.241 825.472C522.201 824.784 520.993 824.44 519.617 824.44C518.241 824.44 517.033 824.784 515.993 825.472C514.969 826.144 514.161 827.096 513.569 828.328C512.993 829.544 512.705 830.968 512.705 832.6ZM533.386 824.2H536.602C538.298 824.2 539.61 824.56 540.538 825.28C541.482 825.984 541.954 826.976 541.954 828.256C541.954 829.248 541.658 830.072 541.066 830.728C540.49 831.384 539.65 831.824 538.546 832.048V832.192C539.602 832.4 540.466 832.896 541.138 833.68C541.81 834.464 542.314 835.432 542.65 836.584C542.954 837.64 543.25 838.464 543.538 839.056C543.842 839.632 544.17 840.048 544.522 840.304C544.89 840.56 545.322 840.744 545.818 840.856V841H544.834C544.13 841 543.546 840.872 543.082 840.616C542.634 840.36 542.25 839.928 541.93 839.32C541.61 838.712 541.306 837.872 541.018 836.8C540.554 835.152 539.938 833.984 539.17 833.296C538.402 832.608 537.466 832.264 536.362 832.264H536.218V831.832H536.362C538.938 831.832 540.226 830.648 540.226 828.28C540.226 825.944 539.018 824.776 536.602 824.776H535.018V841H533.386V824.2ZM555.253 841V824.2H556.885V831.976H566.965V824.2H568.597V841H566.965V832.552H556.885V841H555.253ZM574.847 841V824.2H582.167V825.376L577.967 824.824C577.231 824.728 576.735 824.68 576.479 824.68V832C576.687 832 577.183 831.976 577.967 831.928L581.903 831.688V832.792L577.967 832.552C577.183 832.504 576.687 832.48 576.479 832.48V840.52C576.767 840.52 577.271 840.472 577.991 840.376L582.239 839.824V841H574.847ZM587.268 824.2H590.484C592.18 824.2 593.492 824.56 594.42 825.28C595.364 825.984 595.836 826.976 595.836 828.256C595.836 829.248 595.54 830.072 594.948 830.728C594.372 831.384 593.532 831.824 592.428 832.048V832.192C593.484 832.4 594.348 832.896 595.02 833.68C595.692 834.464 596.196 835.432 596.532 836.584C596.836 837.64 597.132 838.464 597.42 839.056C597.724 839.632 598.052 840.048 598.404 840.304C598.772 840.56 599.204 840.744 599.7 840.856V841H598.716C598.012 841 597.428 840.872 596.964 840.616C596.516 840.36 596.132 839.928 595.812 839.32C595.492 838.712 595.188 837.872 594.9 836.8C594.436 835.152 593.82 833.984 593.052 833.296C592.284 832.608 591.348 832.264 590.244 832.264H590.1V831.832H590.244C592.82 831.832 594.108 830.648 594.108 828.28C594.108 825.944 592.9 824.776 590.484 824.776H588.9V841H587.268V824.2Z" fill="white"/>
<path d="M19.9713 85.8591L-0.0955287 76.4533L0.0673305 99.5468L19.9995 89.859L19.9713 85.8591ZM689 85.1411L709.067 94.5468L708.904 71.4533L688.972 81.1412L689 85.1411ZM13.6346 89.9039L22.7244 89.8398L22.6962 85.8399L13.6064 85.904L13.6346 89.9039ZM31.8141 89.7757L40.9038 89.7115L40.8756 85.7116L31.7859 85.7758L31.8141 89.7757ZM49.9936 89.6474L59.0833 89.5833L59.0551 85.5834L49.9654 85.6475L49.9936 89.6474ZM68.1731 89.5192L77.2628 89.4551L77.2346 85.4552L68.1449 85.5193L68.1731 89.5192ZM86.3526 89.391L95.4423 89.3269L95.4141 85.327L86.3244 85.3911L86.3526 89.391ZM104.532 89.2628L113.622 89.1987L113.594 85.1988L104.504 85.2629L104.532 89.2628ZM122.712 89.1346L131.801 89.0705L131.773 85.0706L122.683 85.1347L122.712 89.1346ZM140.891 89.0064L149.981 88.9423L149.953 84.9424L140.863 85.0065L140.891 89.0064ZM159.07 88.8782L168.16 88.8141L168.132 84.8142L159.042 84.8783L159.07 88.8782ZM177.25 88.75L186.34 88.6859L186.311 84.686L177.222 84.7501L177.25 88.75ZM195.429 88.6218L204.519 88.5577L204.491 84.5578L195.401 84.6219L195.429 88.6218ZM213.609 88.4936L222.699 88.4295L222.67 84.4296L213.581 84.4937L213.609 88.4936ZM231.788 88.3654L240.878 88.3013L240.85 84.3014L231.76 84.3655L231.788 88.3654ZM249.968 88.2372L259.058 88.1731L259.029 84.1732L249.94 84.2373L249.968 88.2372ZM268.147 88.109L277.237 88.0449L277.209 84.045L268.119 84.1091L268.147 88.109ZM286.327 87.9808L295.417 87.9167L295.388 83.9168L286.299 83.9809L286.327 87.9808ZM304.506 87.8526L313.596 87.7885L313.568 83.7886L304.478 83.8527L304.506 87.8526ZM322.686 87.7244L331.776 87.6603L331.747 83.6604L322.658 83.7245L322.686 87.7244ZM340.865 87.5962L349.955 87.5321L349.927 83.5322L340.837 83.5963L340.865 87.5962ZM359.045 87.468L368.134 87.4039L368.106 83.404L359.017 83.4681L359.045 87.468ZM377.224 87.3398L386.314 87.2757L386.286 83.2758L377.196 83.3399L377.224 87.3398ZM395.404 87.2116L404.493 87.1474L404.465 83.1475L395.375 83.2117L395.404 87.2116ZM413.583 87.0833L422.673 87.0192L422.645 83.0193L413.555 83.0834L413.583 87.0833ZM431.763 86.9551L440.852 86.891L440.824 82.8911L431.734 82.9552L431.763 86.9551ZM449.942 86.8269L459.032 86.7628L459.004 82.7629L449.914 82.827L449.942 86.8269ZM468.122 86.6987L477.211 86.6346L477.183 82.6347L468.093 82.6988L468.122 86.6987ZM486.301 86.5705L495.391 86.5064L495.363 82.5065L486.273 82.5706L486.301 86.5705ZM504.481 86.4423L513.57 86.3782L513.542 82.3783L504.452 82.4424L504.481 86.4423ZM522.66 86.3141L531.75 86.25L531.722 82.2501L522.632 82.3142L522.66 86.3141ZM540.84 86.1859L549.929 86.1218L549.901 82.1219L540.811 82.186L540.84 86.1859ZM559.019 86.0577L568.109 85.9936L568.081 81.9937L558.991 82.0578L559.019 86.0577ZM577.199 85.9295L586.288 85.8654L586.26 81.8655L577.17 81.9296L577.199 85.9295ZM595.378 85.8013L604.468 85.7372L604.44 81.7373L595.35 81.8014L595.378 85.8013ZM613.557 85.6731L622.647 85.609L622.619 81.6091L613.529 81.6732L613.557 85.6731ZM631.737 85.5449L640.827 85.4808L640.798 81.4809L631.709 81.545L631.737 85.5449ZM649.916 85.4167L659.006 85.3526L658.978 81.3527L649.888 81.4168L649.916 85.4167ZM668.096 85.2885L677.186 85.2244L677.157 81.2245L668.068 81.2886L668.096 85.2885ZM686.275 85.1603L695.365 85.0962L695.337 81.0963L686.247 81.1604L686.275 85.1603Z" fill="#5CB2CC"/>
</g>
<defs>
<clipPath id="clip0_1_38">
<rect width="709" height="962" fill="white"/>
</clipPath>
</defs>
</svg>
